<mxfile host="app.diagrams.net" modified="2023-12-21T04:07:19.706Z" agent="Mozilla/5.0 (Windows NT 10.0; Win64; x64) AppleWebKit/537.36 (KHTML, like Gecko) Chrome/120.0.0.0 Safari/537.36 Edg/120.0.0.0" etag="MU6t7USDBXBhKEoprCv2" version="22.1.11" type="device" pages="2">
  <diagram name="seq_Quan_Ly_Order" id="Oookx-GotJW0oljgRS5G">
    <mxGraphModel dx="1532" dy="908" grid="1" gridSize="10" guides="1" tooltips="1" connect="1" arrows="1" fold="1" page="1" pageScale="1" pageWidth="827" pageHeight="1169" math="0" shadow="0">
      <root>
        <mxCell id="0" />
        <mxCell id="1" parent="0" />
        <mxCell id="pY9TIWamBwWIattr42y_-1" value="" style="shape=umlLifeline;perimeter=lifelinePerimeter;whiteSpace=wrap;html=1;container=1;dropTarget=0;collapsible=0;recursiveResize=0;outlineConnect=0;portConstraint=eastwest;newEdgeStyle={&quot;curved&quot;:0,&quot;rounded&quot;:0};participant=umlActor;fontSize=16;" parent="1" vertex="1">
          <mxGeometry x="120" y="95" width="40" height="890" as="geometry" />
        </mxCell>
        <mxCell id="pY9TIWamBwWIattr42y_-2" value="" style="html=1;points=[[0,0,0,0,5],[0,1,0,0,-5],[1,0,0,0,5],[1,1,0,0,-5]];perimeter=orthogonalPerimeter;outlineConnect=0;targetShapes=umlLifeline;portConstraint=eastwest;newEdgeStyle={&quot;curved&quot;:0,&quot;rounded&quot;:0};fontSize=16;" parent="pY9TIWamBwWIattr42y_-1" vertex="1">
          <mxGeometry x="15" y="80" width="10" height="810" as="geometry" />
        </mxCell>
        <mxCell id="pY9TIWamBwWIattr42y_-3" value="" style="shape=umlLifeline;perimeter=lifelinePerimeter;whiteSpace=wrap;html=1;container=1;dropTarget=0;collapsible=0;recursiveResize=0;outlineConnect=0;portConstraint=eastwest;newEdgeStyle={&quot;curved&quot;:0,&quot;rounded&quot;:0};participant=umlBoundary;fontSize=16;" parent="1" vertex="1">
          <mxGeometry x="300" y="90" width="50" height="880" as="geometry" />
        </mxCell>
        <mxCell id="pY9TIWamBwWIattr42y_-4" value="" style="html=1;points=[[0,0,0,0,5],[0,1,0,0,-5],[1,0,0,0,5],[1,1,0,0,-5]];perimeter=orthogonalPerimeter;outlineConnect=0;targetShapes=umlLifeline;portConstraint=eastwest;newEdgeStyle={&quot;curved&quot;:0,&quot;rounded&quot;:0};fontSize=16;" parent="pY9TIWamBwWIattr42y_-3" vertex="1">
          <mxGeometry x="20" y="90" width="10" height="90" as="geometry" />
        </mxCell>
        <mxCell id="pY9TIWamBwWIattr42y_-5" value="Nhân viên, quản lý" style="text;html=1;strokeColor=none;fillColor=none;align=center;verticalAlign=middle;whiteSpace=wrap;rounded=0;fontSize=16;" parent="1" vertex="1">
          <mxGeometry x="80" y="130" width="140" height="30" as="geometry" />
        </mxCell>
        <mxCell id="pY9TIWamBwWIattr42y_-6" value="view order" style="text;html=1;strokeColor=none;fillColor=none;align=center;verticalAlign=middle;whiteSpace=wrap;rounded=0;fontSize=16;" parent="1" vertex="1">
          <mxGeometry x="280" y="130" width="90" height="30" as="geometry" />
        </mxCell>
        <mxCell id="pY9TIWamBwWIattr42y_-7" value="" style="shape=umlLifeline;perimeter=lifelinePerimeter;whiteSpace=wrap;html=1;container=1;dropTarget=0;collapsible=0;recursiveResize=0;outlineConnect=0;portConstraint=eastwest;newEdgeStyle={&quot;curved&quot;:0,&quot;rounded&quot;:0};participant=umlBoundary;fontSize=16;" parent="1" vertex="1">
          <mxGeometry x="490" y="90" width="50" height="890" as="geometry" />
        </mxCell>
        <mxCell id="pY9TIWamBwWIattr42y_-8" value="" style="html=1;points=[[0,0,0,0,5],[0,1,0,0,-5],[1,0,0,0,5],[1,1,0,0,-5]];perimeter=orthogonalPerimeter;outlineConnect=0;targetShapes=umlLifeline;portConstraint=eastwest;newEdgeStyle={&quot;curved&quot;:0,&quot;rounded&quot;:0};fontSize=16;" parent="pY9TIWamBwWIattr42y_-7" vertex="1">
          <mxGeometry x="20" y="130" width="10" height="70" as="geometry" />
        </mxCell>
        <mxCell id="pY9TIWamBwWIattr42y_-9" value="view bàn của order" style="text;html=1;strokeColor=none;fillColor=none;align=center;verticalAlign=middle;whiteSpace=wrap;rounded=0;fontSize=16;" parent="1" vertex="1">
          <mxGeometry x="460" y="130" width="110" height="30" as="geometry" />
        </mxCell>
        <mxCell id="pY9TIWamBwWIattr42y_-10" value="Xem mọi thứ trong order" style="html=1;verticalAlign=bottom;endArrow=block;curved=0;rounded=0;fontSize=16;" parent="1" target="pY9TIWamBwWIattr42y_-4" edge="1" source="pY9TIWamBwWIattr42y_-2">
          <mxGeometry width="80" relative="1" as="geometry">
            <mxPoint x="185" y="210" as="sourcePoint" />
            <mxPoint x="320" y="210" as="targetPoint" />
            <Array as="points">
              <mxPoint x="240" y="210" />
            </Array>
          </mxGeometry>
        </mxCell>
        <mxCell id="pY9TIWamBwWIattr42y_-12" value="Hiển thị danh sách bàn" style="html=1;verticalAlign=bottom;endArrow=block;curved=0;rounded=0;entryX=0;entryY=0;entryDx=0;entryDy=5;entryPerimeter=0;fontSize=16;" parent="1" source="pY9TIWamBwWIattr42y_-4" target="pY9TIWamBwWIattr42y_-8" edge="1">
          <mxGeometry width="80" relative="1" as="geometry">
            <mxPoint x="350" y="272" as="sourcePoint" />
            <mxPoint x="490" y="200" as="targetPoint" />
          </mxGeometry>
        </mxCell>
        <mxCell id="pY9TIWamBwWIattr42y_-13" value="Chọn bàn cần đặt" style="html=1;verticalAlign=bottom;endArrow=block;curved=0;rounded=0;fontSize=16;" parent="1" target="pY9TIWamBwWIattr42y_-8" edge="1">
          <mxGeometry width="80" relative="1" as="geometry">
            <mxPoint x="330" y="260" as="sourcePoint" />
            <mxPoint x="530" y="260" as="targetPoint" />
          </mxGeometry>
        </mxCell>
        <mxCell id="pY9TIWamBwWIattr42y_-14" value=":Database&lt;br style=&quot;font-size: 16px;&quot;&gt;" style="shape=umlLifeline;perimeter=lifelinePerimeter;whiteSpace=wrap;html=1;container=1;dropTarget=0;collapsible=0;recursiveResize=0;outlineConnect=0;portConstraint=eastwest;newEdgeStyle={&quot;curved&quot;:0,&quot;rounded&quot;:0};size=70;fontSize=16;" parent="1" vertex="1">
          <mxGeometry x="1420" y="80" width="100" height="910" as="geometry" />
        </mxCell>
        <mxCell id="pY9TIWamBwWIattr42y_-15" value="" style="html=1;points=[[0,0,0,0,5],[0,1,0,0,-5],[1,0,0,0,5],[1,1,0,0,-5]];perimeter=orthogonalPerimeter;outlineConnect=0;targetShapes=umlLifeline;portConstraint=eastwest;newEdgeStyle={&quot;curved&quot;:0,&quot;rounded&quot;:0};fontSize=16;" parent="pY9TIWamBwWIattr42y_-14" vertex="1">
          <mxGeometry x="45" y="481" width="10" height="40" as="geometry" />
        </mxCell>
        <mxCell id="r9vm-ozee4wDa1cbDHnA-6" value="" style="html=1;points=[[0,0,0,0,5],[0,1,0,0,-5],[1,0,0,0,5],[1,1,0,0,-5]];perimeter=orthogonalPerimeter;outlineConnect=0;targetShapes=umlLifeline;portConstraint=eastwest;newEdgeStyle={&quot;curved&quot;:0,&quot;rounded&quot;:0};fontSize=16;" parent="pY9TIWamBwWIattr42y_-14" vertex="1">
          <mxGeometry x="45" y="210" width="10" height="40" as="geometry" />
        </mxCell>
        <mxCell id="pY9TIWamBwWIattr42y_-16" value="" style="shape=umlLifeline;perimeter=lifelinePerimeter;whiteSpace=wrap;html=1;container=1;dropTarget=0;collapsible=0;recursiveResize=0;outlineConnect=0;portConstraint=eastwest;newEdgeStyle={&quot;curved&quot;:0,&quot;rounded&quot;:0};participant=umlControl;fontSize=16;" parent="1" vertex="1">
          <mxGeometry x="820" y="90" width="40" height="880" as="geometry" />
        </mxCell>
        <mxCell id="pY9TIWamBwWIattr42y_-17" value="" style="html=1;points=[[0,0,0,0,5],[0,1,0,0,-5],[1,0,0,0,5],[1,1,0,0,-5]];perimeter=orthogonalPerimeter;outlineConnect=0;targetShapes=umlLifeline;portConstraint=eastwest;newEdgeStyle={&quot;curved&quot;:0,&quot;rounded&quot;:0};fontSize=16;" parent="pY9TIWamBwWIattr42y_-16" vertex="1">
          <mxGeometry x="15" y="180" width="10" height="130" as="geometry" />
        </mxCell>
        <mxCell id="pY9TIWamBwWIattr42y_-18" value="controller chọn bàn" style="text;html=1;align=center;verticalAlign=middle;resizable=0;points=[];autosize=1;strokeColor=none;fillColor=none;fontSize=16;" parent="1" vertex="1">
          <mxGeometry x="760" y="130" width="160" height="30" as="geometry" />
        </mxCell>
        <mxCell id="pY9TIWamBwWIattr42y_-20" value="Tạo truy vấn xác định bàn được chọn/đặt" style="html=1;verticalAlign=bottom;endArrow=block;curved=0;rounded=0;exitX=1;exitY=1;exitDx=0;exitDy=-5;exitPerimeter=0;fontSize=16;" parent="1" source="pY9TIWamBwWIattr42y_-8" target="pY9TIWamBwWIattr42y_-17" edge="1">
          <mxGeometry width="80" relative="1" as="geometry">
            <mxPoint x="580" y="340" as="sourcePoint" />
            <mxPoint x="680" y="315" as="targetPoint" />
          </mxGeometry>
        </mxCell>
        <mxCell id="pY9TIWamBwWIattr42y_-24" value="alt" style="shape=umlFrame;whiteSpace=wrap;html=1;pointerEvents=0;fontSize=16;" parent="1" vertex="1">
          <mxGeometry x="40" y="360" width="1500" height="560" as="geometry" />
        </mxCell>
        <mxCell id="pY9TIWamBwWIattr42y_-25" value="" style="endArrow=none;dashed=1;html=1;rounded=0;entryX=1.001;entryY=0.138;entryDx=0;entryDy=0;entryPerimeter=0;exitX=0.001;exitY=0.142;exitDx=0;exitDy=0;exitPerimeter=0;fontSize=16;" parent="1" source="pY9TIWamBwWIattr42y_-24" target="pY9TIWamBwWIattr42y_-24" edge="1">
          <mxGeometry width="50" height="50" relative="1" as="geometry">
            <mxPoint x="30" y="610" as="sourcePoint" />
            <mxPoint x="1027.96" y="604.8" as="targetPoint" />
            <Array as="points" />
          </mxGeometry>
        </mxCell>
        <mxCell id="pY9TIWamBwWIattr42y_-26" value="invalid" style="text;html=1;align=center;verticalAlign=middle;resizable=0;points=[];autosize=1;strokeColor=none;fillColor=none;fontSize=16;" parent="1" vertex="1">
          <mxGeometry x="70" y="396" width="70" height="30" as="geometry" />
        </mxCell>
        <mxCell id="pY9TIWamBwWIattr42y_-27" value="valid" style="text;html=1;align=center;verticalAlign=middle;resizable=0;points=[];autosize=1;strokeColor=none;fillColor=none;fontSize=16;" parent="1" vertex="1">
          <mxGeometry x="70" y="500" width="60" height="30" as="geometry" />
        </mxCell>
        <mxCell id="pY9TIWamBwWIattr42y_-30" value="" style="html=1;points=[[0,0,0,0,5],[0,1,0,0,-5],[1,0,0,0,5],[1,1,0,0,-5]];perimeter=orthogonalPerimeter;outlineConnect=0;targetShapes=umlLifeline;portConstraint=eastwest;newEdgeStyle={&quot;curved&quot;:0,&quot;rounded&quot;:0};fontSize=16;" parent="1" vertex="1">
          <mxGeometry x="320" y="717.75" width="10" height="62.25" as="geometry" />
        </mxCell>
        <mxCell id="pY9TIWamBwWIattr42y_-31" value="Đưa ra thông báo thành công" style="html=1;verticalAlign=bottom;startArrow=none;startFill=0;endArrow=open;startSize=8;rounded=0;dashed=1;endFill=0;entryX=1;entryY=0;entryDx=0;entryDy=5;entryPerimeter=0;fontSize=16;" parent="1" source="r9vm-ozee4wDa1cbDHnA-20" target="pY9TIWamBwWIattr42y_-30" edge="1">
          <mxGeometry x="0.0017" width="60" relative="1" as="geometry">
            <mxPoint x="1109" y="734.63" as="sourcePoint" />
            <mxPoint x="250" y="730.88" as="targetPoint" />
            <mxPoint as="offset" />
          </mxGeometry>
        </mxCell>
        <mxCell id="pY9TIWamBwWIattr42y_-32" value="Hiển thị danh danh sách bàn và món sau khi đặt" style="html=1;verticalAlign=bottom;startArrow=none;startFill=0;endArrow=open;startSize=8;rounded=0;dashed=1;endFill=0;exitX=0;exitY=1;exitDx=0;exitDy=-5;exitPerimeter=0;fontSize=16;" parent="1" source="r9vm-ozee4wDa1cbDHnA-20" target="pY9TIWamBwWIattr42y_-30" edge="1">
          <mxGeometry x="-0.0598" y="-10" width="60" relative="1" as="geometry">
            <mxPoint x="754" y="808" as="sourcePoint" />
            <mxPoint x="364" y="807.9999999999998" as="targetPoint" />
            <mxPoint as="offset" />
          </mxGeometry>
        </mxCell>
        <mxCell id="pY9TIWamBwWIattr42y_-34" value="" style="html=1;points=[[0,0,0,0,5],[0,1,0,0,-5],[1,0,0,0,5],[1,1,0,0,-5]];perimeter=orthogonalPerimeter;outlineConnect=0;targetShapes=umlLifeline;portConstraint=eastwest;newEdgeStyle={&quot;curved&quot;:0,&quot;rounded&quot;:0};fontSize=16;" parent="1" vertex="1">
          <mxGeometry x="790" y="459.5" width="10" height="70.5" as="geometry" />
        </mxCell>
        <mxCell id="pY9TIWamBwWIattr42y_-35" value="" style="shape=umlLifeline;perimeter=lifelinePerimeter;whiteSpace=wrap;html=1;container=1;dropTarget=0;collapsible=0;recursiveResize=0;outlineConnect=0;portConstraint=eastwest;newEdgeStyle={&quot;curved&quot;:0,&quot;rounded&quot;:0};participant=umlBoundary;fontSize=16;" parent="1" vertex="1">
          <mxGeometry x="980" y="90" width="50" height="900" as="geometry" />
        </mxCell>
        <mxCell id="pY9TIWamBwWIattr42y_-36" value="" style="html=1;points=[[0,0,0,0,5],[0,1,0,0,-5],[1,0,0,0,5],[1,1,0,0,-5]];perimeter=orthogonalPerimeter;outlineConnect=0;targetShapes=umlLifeline;portConstraint=eastwest;newEdgeStyle={&quot;curved&quot;:0,&quot;rounded&quot;:0};fontSize=16;" parent="pY9TIWamBwWIattr42y_-35" vertex="1">
          <mxGeometry x="20" y="376" width="10" height="84" as="geometry" />
        </mxCell>
        <mxCell id="r9vm-ozee4wDa1cbDHnA-16" value="" style="html=1;points=[[0,0,0,0,5],[0,1,0,0,-5],[1,0,0,0,5],[1,1,0,0,-5]];perimeter=orthogonalPerimeter;outlineConnect=0;targetShapes=umlLifeline;portConstraint=eastwest;newEdgeStyle={&quot;curved&quot;:0,&quot;rounded&quot;:0};fontSize=16;" parent="pY9TIWamBwWIattr42y_-35" vertex="1">
          <mxGeometry x="20" y="557.5" width="10" height="22.5" as="geometry" />
        </mxCell>
        <mxCell id="pY9TIWamBwWIattr42y_-37" value="view món của order" style="text;html=1;strokeColor=none;fillColor=none;align=center;verticalAlign=middle;whiteSpace=wrap;rounded=0;fontSize=16;" parent="1" vertex="1">
          <mxGeometry x="940" y="130" width="150" height="30" as="geometry" />
        </mxCell>
        <mxCell id="pY9TIWamBwWIattr42y_-38" value="" style="shape=umlLifeline;perimeter=lifelinePerimeter;whiteSpace=wrap;html=1;container=1;dropTarget=0;collapsible=0;recursiveResize=0;outlineConnect=0;portConstraint=eastwest;newEdgeStyle={&quot;curved&quot;:0,&quot;rounded&quot;:0};participant=umlControl;fontSize=16;" parent="1" vertex="1">
          <mxGeometry x="1299" y="90" width="40" height="880" as="geometry" />
        </mxCell>
        <mxCell id="pY9TIWamBwWIattr42y_-39" value="" style="html=1;points=[[0,0,0,0,5],[0,1,0,0,-5],[1,0,0,0,5],[1,1,0,0,-5]];perimeter=orthogonalPerimeter;outlineConnect=0;targetShapes=umlLifeline;portConstraint=eastwest;newEdgeStyle={&quot;curved&quot;:0,&quot;rounded&quot;:0};fontSize=16;" parent="pY9TIWamBwWIattr42y_-38" vertex="1">
          <mxGeometry x="16" y="449" width="10" height="31" as="geometry" />
        </mxCell>
        <mxCell id="r9vm-ozee4wDa1cbDHnA-14" value="" style="html=1;points=[[0,0,0,0,5],[0,1,0,0,-5],[1,0,0,0,5],[1,1,0,0,-5]];perimeter=orthogonalPerimeter;outlineConnect=0;targetShapes=umlLifeline;portConstraint=eastwest;newEdgeStyle={&quot;curved&quot;:0,&quot;rounded&quot;:0};fontSize=16;" parent="pY9TIWamBwWIattr42y_-38" vertex="1">
          <mxGeometry x="15" y="502" width="10" height="68" as="geometry" />
        </mxCell>
        <mxCell id="pY9TIWamBwWIattr42y_-40" value="controller chọn món" style="text;html=1;align=center;verticalAlign=middle;resizable=0;points=[];autosize=1;strokeColor=none;fillColor=none;fontSize=16;" parent="1" vertex="1">
          <mxGeometry x="1240" y="130" width="160" height="30" as="geometry" />
        </mxCell>
        <mxCell id="r9vm-ozee4wDa1cbDHnA-1" value="HIển thị danh sách món" style="html=1;verticalAlign=bottom;endArrow=block;curved=0;rounded=0;entryX=0;entryY=0;entryDx=0;entryDy=5;entryPerimeter=0;fontSize=16;" parent="1" source="pY9TIWamBwWIattr42y_-34" target="pY9TIWamBwWIattr42y_-36" edge="1">
          <mxGeometry x="0.0047" width="80" relative="1" as="geometry">
            <mxPoint x="746" y="499" as="sourcePoint" />
            <mxPoint x="960" y="499" as="targetPoint" />
            <mxPoint as="offset" />
          </mxGeometry>
        </mxCell>
        <mxCell id="r9vm-ozee4wDa1cbDHnA-2" value="Chọn món cần đặt" style="html=1;verticalAlign=bottom;endArrow=block;curved=0;rounded=0;fontSize=16;" parent="1" edge="1" target="pY9TIWamBwWIattr42y_-36" source="pY9TIWamBwWIattr42y_-34">
          <mxGeometry width="80" relative="1" as="geometry">
            <mxPoint x="750" y="513" as="sourcePoint" />
            <mxPoint x="960" y="513" as="targetPoint" />
          </mxGeometry>
        </mxCell>
        <mxCell id="r9vm-ozee4wDa1cbDHnA-3" value="Tạo truy vấn xác nhận món của bàn đó" style="html=1;verticalAlign=bottom;endArrow=block;curved=0;rounded=0;exitX=1;exitY=1;exitDx=0;exitDy=-5;exitPerimeter=0;entryX=0;entryY=0;entryDx=0;entryDy=5;entryPerimeter=0;fontSize=16;" parent="1" source="pY9TIWamBwWIattr42y_-36" target="pY9TIWamBwWIattr42y_-39" edge="1">
          <mxGeometry width="80" relative="1" as="geometry">
            <mxPoint x="970" y="491" as="sourcePoint" />
            <mxPoint x="1090" y="220" as="targetPoint" />
          </mxGeometry>
        </mxCell>
        <mxCell id="r9vm-ozee4wDa1cbDHnA-4" value="Kiểm tra món" style="html=1;verticalAlign=bottom;endArrow=block;curved=0;rounded=0;exitX=1;exitY=1;exitDx=0;exitDy=-5;exitPerimeter=0;entryX=0;entryY=0;entryDx=0;entryDy=5;entryPerimeter=0;fontSize=16;" parent="1" source="pY9TIWamBwWIattr42y_-39" target="pY9TIWamBwWIattr42y_-15" edge="1">
          <mxGeometry width="80" relative="1" as="geometry">
            <mxPoint x="1230" y="580.5" as="sourcePoint" />
            <mxPoint x="1499" y="508.5" as="targetPoint" />
          </mxGeometry>
        </mxCell>
        <mxCell id="r9vm-ozee4wDa1cbDHnA-5" value="Đưa ra thông báo lỗi" style="html=1;verticalAlign=bottom;startArrow=none;startFill=0;endArrow=open;startSize=8;rounded=0;dashed=1;endFill=0;entryX=1;entryY=0;entryDx=0;entryDy=5;entryPerimeter=0;exitX=0;exitY=1;exitDx=0;exitDy=-5;exitPerimeter=0;fontSize=16;" parent="1" source="r9vm-ozee4wDa1cbDHnA-14" target="r9vm-ozee4wDa1cbDHnA-16" edge="1">
          <mxGeometry x="0.0017" width="60" relative="1" as="geometry">
            <mxPoint x="1405" y="695.7500000000002" as="sourcePoint" />
            <mxPoint x="910" y="704.25" as="targetPoint" />
            <mxPoint as="offset" />
          </mxGeometry>
        </mxCell>
        <mxCell id="r9vm-ozee4wDa1cbDHnA-7" value="Kiểm tra bàn và trạng thái của bàn" style="html=1;verticalAlign=bottom;endArrow=block;curved=0;rounded=0;entryX=0;entryY=0;entryDx=0;entryDy=5;entryPerimeter=0;fontSize=16;" parent="1" source="pY9TIWamBwWIattr42y_-17" target="r9vm-ozee4wDa1cbDHnA-6" edge="1">
          <mxGeometry width="80" relative="1" as="geometry">
            <mxPoint x="1205" y="448" as="sourcePoint" />
            <mxPoint x="1425" y="448" as="targetPoint" />
          </mxGeometry>
        </mxCell>
        <mxCell id="r9vm-ozee4wDa1cbDHnA-8" value="Trả về kết quả" style="html=1;verticalAlign=bottom;startArrow=none;startFill=0;endArrow=open;startSize=8;rounded=0;dashed=1;endFill=0;exitX=0;exitY=1;exitDx=0;exitDy=-5;exitPerimeter=0;fontSize=16;" parent="1" source="r9vm-ozee4wDa1cbDHnA-6" target="pY9TIWamBwWIattr42y_-17" edge="1">
          <mxGeometry x="0.0017" width="60" relative="1" as="geometry">
            <mxPoint x="1355" y="331.5" as="sourcePoint" />
            <mxPoint x="910" y="330" as="targetPoint" />
            <mxPoint as="offset" />
          </mxGeometry>
        </mxCell>
        <mxCell id="r9vm-ozee4wDa1cbDHnA-9" value="" style="html=1;points=[[0,0,0,0,5],[0,1,0,0,-5],[1,0,0,0,5],[1,1,0,0,-5]];perimeter=orthogonalPerimeter;outlineConnect=0;targetShapes=umlLifeline;portConstraint=eastwest;newEdgeStyle={&quot;curved&quot;:0,&quot;rounded&quot;:0};fontSize=16;" parent="1" vertex="1">
          <mxGeometry x="320" y="376" width="10" height="30" as="geometry" />
        </mxCell>
        <mxCell id="r9vm-ozee4wDa1cbDHnA-12" value="Đưa ra thông báo lỗi" style="html=1;verticalAlign=bottom;startArrow=none;startFill=0;endArrow=open;startSize=8;rounded=0;dashed=1;endFill=0;exitX=0;exitY=1;exitDx=0;exitDy=-5;exitPerimeter=0;entryX=1.1;entryY=0.517;entryDx=0;entryDy=0;entryPerimeter=0;fontSize=16;" parent="1" source="pY9TIWamBwWIattr42y_-17" target="r9vm-ozee4wDa1cbDHnA-9" edge="1">
          <mxGeometry x="0.0017" width="60" relative="1" as="geometry">
            <mxPoint x="1425" y="345" as="sourcePoint" />
            <mxPoint x="756" y="345" as="targetPoint" />
            <mxPoint as="offset" />
          </mxGeometry>
        </mxCell>
        <mxCell id="r9vm-ozee4wDa1cbDHnA-13" value="Trả về kết quả" style="html=1;verticalAlign=bottom;startArrow=none;startFill=0;endArrow=open;startSize=8;rounded=0;dashed=1;endFill=0;exitX=0;exitY=1;exitDx=0;exitDy=-5;exitPerimeter=0;entryX=1;entryY=0;entryDx=0;entryDy=5;entryPerimeter=0;fontSize=16;" parent="1" source="pY9TIWamBwWIattr42y_-15" target="r9vm-ozee4wDa1cbDHnA-14" edge="1">
          <mxGeometry x="0.0017" width="60" relative="1" as="geometry">
            <mxPoint x="1475" y="335" as="sourcePoint" />
            <mxPoint x="756" y="335" as="targetPoint" />
            <mxPoint as="offset" />
          </mxGeometry>
        </mxCell>
        <mxCell id="r9vm-ozee4wDa1cbDHnA-15" value="alt" style="shape=umlFrame;whiteSpace=wrap;html=1;pointerEvents=0;fontSize=16;" parent="1" vertex="1">
          <mxGeometry x="60" y="621" width="1450" height="199" as="geometry" />
        </mxCell>
        <mxCell id="r9vm-ozee4wDa1cbDHnA-17" value="" style="endArrow=none;dashed=1;html=1;rounded=0;entryX=1;entryY=0.371;entryDx=0;entryDy=0;entryPerimeter=0;exitX=0;exitY=0.393;exitDx=0;exitDy=0;exitPerimeter=0;fontSize=16;" parent="1" source="r9vm-ozee4wDa1cbDHnA-15" target="r9vm-ozee4wDa1cbDHnA-15" edge="1">
          <mxGeometry width="50" height="50" relative="1" as="geometry">
            <mxPoint x="81" y="450" as="sourcePoint" />
            <mxPoint x="1551" y="447" as="targetPoint" />
            <Array as="points" />
          </mxGeometry>
        </mxCell>
        <mxCell id="r9vm-ozee4wDa1cbDHnA-18" value="invalid" style="text;html=1;align=center;verticalAlign=middle;resizable=0;points=[];autosize=1;strokeColor=none;fillColor=none;fontSize=16;" parent="1" vertex="1">
          <mxGeometry x="70" y="662" width="70" height="30" as="geometry" />
        </mxCell>
        <mxCell id="r9vm-ozee4wDa1cbDHnA-19" value="valid" style="text;html=1;align=center;verticalAlign=middle;resizable=0;points=[];autosize=1;strokeColor=none;fillColor=none;fontSize=16;" parent="1" vertex="1">
          <mxGeometry x="80" y="733.87" width="60" height="30" as="geometry" />
        </mxCell>
        <mxCell id="r9vm-ozee4wDa1cbDHnA-20" value="" style="html=1;points=[[0,0,0,0,5],[0,1,0,0,-5],[1,0,0,0,5],[1,1,0,0,-5]];perimeter=orthogonalPerimeter;outlineConnect=0;targetShapes=umlLifeline;portConstraint=eastwest;newEdgeStyle={&quot;curved&quot;:0,&quot;rounded&quot;:0};fontSize=16;" parent="1" vertex="1">
          <mxGeometry x="1314" y="717.75" width="10" height="58.25" as="geometry" />
        </mxCell>
      </root>
    </mxGraphModel>
  </diagram>
  <diagram id="PQjSgG7Vfv22yy6LzEw7" name="seq_Quan_Ly_Huy_Mon">
    <mxGraphModel dx="1811" dy="1073" grid="1" gridSize="10" guides="1" tooltips="1" connect="1" arrows="1" fold="1" page="1" pageScale="1" pageWidth="827" pageHeight="1169" math="0" shadow="0">
      <root>
        <mxCell id="0" />
        <mxCell id="1" parent="0" />
        <mxCell id="Rt1vMekK_vcTUdiVE9J9-1" value="" style="shape=umlLifeline;perimeter=lifelinePerimeter;whiteSpace=wrap;html=1;container=1;dropTarget=0;collapsible=0;recursiveResize=0;outlineConnect=0;portConstraint=eastwest;newEdgeStyle={&quot;curved&quot;:0,&quot;rounded&quot;:0};participant=umlActor;fontSize=16;" parent="1" vertex="1">
          <mxGeometry x="125" y="90" width="40" height="890" as="geometry" />
        </mxCell>
        <mxCell id="Rt1vMekK_vcTUdiVE9J9-2" value="" style="html=1;points=[[0,0,0,0,5],[0,1,0,0,-5],[1,0,0,0,5],[1,1,0,0,-5]];perimeter=orthogonalPerimeter;outlineConnect=0;targetShapes=umlLifeline;portConstraint=eastwest;newEdgeStyle={&quot;curved&quot;:0,&quot;rounded&quot;:0};fontSize=16;" parent="Rt1vMekK_vcTUdiVE9J9-1" vertex="1">
          <mxGeometry x="15" y="80" width="10" height="810" as="geometry" />
        </mxCell>
        <mxCell id="Rt1vMekK_vcTUdiVE9J9-3" value="" style="shape=umlLifeline;perimeter=lifelinePerimeter;whiteSpace=wrap;html=1;container=1;dropTarget=0;collapsible=0;recursiveResize=0;outlineConnect=0;portConstraint=eastwest;newEdgeStyle={&quot;curved&quot;:0,&quot;rounded&quot;:0};participant=umlBoundary;fontSize=16;" parent="1" vertex="1">
          <mxGeometry x="300" y="90" width="50" height="880" as="geometry" />
        </mxCell>
        <mxCell id="Rt1vMekK_vcTUdiVE9J9-4" value="" style="html=1;points=[[0,0,0,0,5],[0,1,0,0,-5],[1,0,0,0,5],[1,1,0,0,-5]];perimeter=orthogonalPerimeter;outlineConnect=0;targetShapes=umlLifeline;portConstraint=eastwest;newEdgeStyle={&quot;curved&quot;:0,&quot;rounded&quot;:0};fontSize=16;" parent="Rt1vMekK_vcTUdiVE9J9-3" vertex="1">
          <mxGeometry x="20" y="90" width="10" height="90" as="geometry" />
        </mxCell>
        <mxCell id="Rt1vMekK_vcTUdiVE9J9-5" value="Nhân viên, quản lý" style="text;html=1;strokeColor=none;fillColor=none;align=center;verticalAlign=middle;whiteSpace=wrap;rounded=0;fontSize=16;" parent="1" vertex="1">
          <mxGeometry x="95" y="130" width="110" height="30" as="geometry" />
        </mxCell>
        <mxCell id="Rt1vMekK_vcTUdiVE9J9-6" value="view order" style="text;html=1;strokeColor=none;fillColor=none;align=center;verticalAlign=middle;whiteSpace=wrap;rounded=0;fontSize=16;" parent="1" vertex="1">
          <mxGeometry x="280" y="130" width="90" height="30" as="geometry" />
        </mxCell>
        <mxCell id="Rt1vMekK_vcTUdiVE9J9-7" value="" style="shape=umlLifeline;perimeter=lifelinePerimeter;whiteSpace=wrap;html=1;container=1;dropTarget=0;collapsible=0;recursiveResize=0;outlineConnect=0;portConstraint=eastwest;newEdgeStyle={&quot;curved&quot;:0,&quot;rounded&quot;:0};participant=umlBoundary;fontSize=16;" parent="1" vertex="1">
          <mxGeometry x="490" y="90" width="50" height="890" as="geometry" />
        </mxCell>
        <mxCell id="Rt1vMekK_vcTUdiVE9J9-8" value="" style="html=1;points=[[0,0,0,0,5],[0,1,0,0,-5],[1,0,0,0,5],[1,1,0,0,-5]];perimeter=orthogonalPerimeter;outlineConnect=0;targetShapes=umlLifeline;portConstraint=eastwest;newEdgeStyle={&quot;curved&quot;:0,&quot;rounded&quot;:0};fontSize=16;" parent="Rt1vMekK_vcTUdiVE9J9-7" vertex="1">
          <mxGeometry x="20" y="130" width="10" height="70" as="geometry" />
        </mxCell>
        <mxCell id="Rt1vMekK_vcTUdiVE9J9-9" value="view bàn của order" style="text;html=1;strokeColor=none;fillColor=none;align=center;verticalAlign=middle;whiteSpace=wrap;rounded=0;fontSize=16;" parent="1" vertex="1">
          <mxGeometry x="460" y="130" width="110" height="30" as="geometry" />
        </mxCell>
        <mxCell id="Rt1vMekK_vcTUdiVE9J9-10" value="Xem mọi tứ trong order" style="html=1;verticalAlign=bottom;endArrow=block;curved=0;rounded=0;fontSize=16;" parent="1" target="Rt1vMekK_vcTUdiVE9J9-4" edge="1" source="Rt1vMekK_vcTUdiVE9J9-2">
          <mxGeometry width="80" relative="1" as="geometry">
            <mxPoint x="185" y="210" as="sourcePoint" />
            <mxPoint x="320" y="210" as="targetPoint" />
            <Array as="points">
              <mxPoint x="250" y="220" />
            </Array>
          </mxGeometry>
        </mxCell>
        <mxCell id="Rt1vMekK_vcTUdiVE9J9-11" value="Hiển thị danh sách bàn" style="html=1;verticalAlign=bottom;endArrow=block;curved=0;rounded=0;entryX=0;entryY=0;entryDx=0;entryDy=5;entryPerimeter=0;fontSize=16;" parent="1" source="Rt1vMekK_vcTUdiVE9J9-4" target="Rt1vMekK_vcTUdiVE9J9-8" edge="1">
          <mxGeometry width="80" relative="1" as="geometry">
            <mxPoint x="350" y="272" as="sourcePoint" />
            <mxPoint x="490" y="200" as="targetPoint" />
          </mxGeometry>
        </mxCell>
        <mxCell id="Rt1vMekK_vcTUdiVE9J9-12" value="Chọn bàn cần hủy món" style="html=1;verticalAlign=bottom;endArrow=block;curved=0;rounded=0;fontSize=16;" parent="1" target="Rt1vMekK_vcTUdiVE9J9-8" edge="1">
          <mxGeometry width="80" relative="1" as="geometry">
            <mxPoint x="330" y="260" as="sourcePoint" />
            <mxPoint x="530" y="260" as="targetPoint" />
          </mxGeometry>
        </mxCell>
        <mxCell id="Rt1vMekK_vcTUdiVE9J9-13" value=":Database&lt;br style=&quot;font-size: 16px;&quot;&gt;" style="shape=umlLifeline;perimeter=lifelinePerimeter;whiteSpace=wrap;html=1;container=1;dropTarget=0;collapsible=0;recursiveResize=0;outlineConnect=0;portConstraint=eastwest;newEdgeStyle={&quot;curved&quot;:0,&quot;rounded&quot;:0};size=70;fontSize=16;" parent="1" vertex="1">
          <mxGeometry x="1529" y="80" width="100" height="910" as="geometry" />
        </mxCell>
        <mxCell id="Rt1vMekK_vcTUdiVE9J9-14" value="" style="html=1;points=[[0,0,0,0,5],[0,1,0,0,-5],[1,0,0,0,5],[1,1,0,0,-5]];perimeter=orthogonalPerimeter;outlineConnect=0;targetShapes=umlLifeline;portConstraint=eastwest;newEdgeStyle={&quot;curved&quot;:0,&quot;rounded&quot;:0};fontSize=16;" parent="Rt1vMekK_vcTUdiVE9J9-13" vertex="1">
          <mxGeometry x="45" y="481" width="10" height="40" as="geometry" />
        </mxCell>
        <mxCell id="Rt1vMekK_vcTUdiVE9J9-15" value="" style="html=1;points=[[0,0,0,0,5],[0,1,0,0,-5],[1,0,0,0,5],[1,1,0,0,-5]];perimeter=orthogonalPerimeter;outlineConnect=0;targetShapes=umlLifeline;portConstraint=eastwest;newEdgeStyle={&quot;curved&quot;:0,&quot;rounded&quot;:0};fontSize=16;" parent="Rt1vMekK_vcTUdiVE9J9-13" vertex="1">
          <mxGeometry x="45" y="210" width="10" height="40" as="geometry" />
        </mxCell>
        <mxCell id="Rt1vMekK_vcTUdiVE9J9-16" value="" style="shape=umlLifeline;perimeter=lifelinePerimeter;whiteSpace=wrap;html=1;container=1;dropTarget=0;collapsible=0;recursiveResize=0;outlineConnect=0;portConstraint=eastwest;newEdgeStyle={&quot;curved&quot;:0,&quot;rounded&quot;:0};participant=umlControl;fontSize=16;" parent="1" vertex="1">
          <mxGeometry x="820" y="90" width="40" height="880" as="geometry" />
        </mxCell>
        <mxCell id="Rt1vMekK_vcTUdiVE9J9-17" value="" style="html=1;points=[[0,0,0,0,5],[0,1,0,0,-5],[1,0,0,0,5],[1,1,0,0,-5]];perimeter=orthogonalPerimeter;outlineConnect=0;targetShapes=umlLifeline;portConstraint=eastwest;newEdgeStyle={&quot;curved&quot;:0,&quot;rounded&quot;:0};fontSize=16;" parent="Rt1vMekK_vcTUdiVE9J9-16" vertex="1">
          <mxGeometry x="15" y="180" width="10" height="130" as="geometry" />
        </mxCell>
        <mxCell id="Rt1vMekK_vcTUdiVE9J9-18" value="controller chọn bàn" style="text;html=1;align=center;verticalAlign=middle;resizable=0;points=[];autosize=1;strokeColor=none;fillColor=none;fontSize=16;" parent="1" vertex="1">
          <mxGeometry x="760" y="130" width="160" height="30" as="geometry" />
        </mxCell>
        <mxCell id="Rt1vMekK_vcTUdiVE9J9-19" value="Tạo truy vấn xác định bàn được chọn/đặt" style="html=1;verticalAlign=bottom;endArrow=block;curved=0;rounded=0;exitX=1;exitY=1;exitDx=0;exitDy=-5;exitPerimeter=0;fontSize=16;" parent="1" source="Rt1vMekK_vcTUdiVE9J9-8" target="Rt1vMekK_vcTUdiVE9J9-17" edge="1">
          <mxGeometry width="80" relative="1" as="geometry">
            <mxPoint x="580" y="340" as="sourcePoint" />
            <mxPoint x="680" y="315" as="targetPoint" />
          </mxGeometry>
        </mxCell>
        <mxCell id="Rt1vMekK_vcTUdiVE9J9-20" value="alt" style="shape=umlFrame;whiteSpace=wrap;html=1;pointerEvents=0;fontSize=16;" parent="1" vertex="1">
          <mxGeometry x="30" y="360" width="1620" height="560" as="geometry" />
        </mxCell>
        <mxCell id="Rt1vMekK_vcTUdiVE9J9-21" value="" style="endArrow=none;dashed=1;html=1;rounded=0;entryX=1.001;entryY=0.138;entryDx=0;entryDy=0;entryPerimeter=0;exitX=0.001;exitY=0.142;exitDx=0;exitDy=0;exitPerimeter=0;fontSize=16;" parent="1" source="Rt1vMekK_vcTUdiVE9J9-20" target="Rt1vMekK_vcTUdiVE9J9-20" edge="1">
          <mxGeometry width="50" height="50" relative="1" as="geometry">
            <mxPoint x="30" y="610" as="sourcePoint" />
            <mxPoint x="1027.96" y="604.8" as="targetPoint" />
            <Array as="points" />
          </mxGeometry>
        </mxCell>
        <mxCell id="Rt1vMekK_vcTUdiVE9J9-22" value="invalid" style="text;html=1;align=center;verticalAlign=middle;resizable=0;points=[];autosize=1;strokeColor=none;fillColor=none;fontSize=16;" parent="1" vertex="1">
          <mxGeometry x="64" y="396" width="70" height="30" as="geometry" />
        </mxCell>
        <mxCell id="Rt1vMekK_vcTUdiVE9J9-23" value="valid" style="text;html=1;align=center;verticalAlign=middle;resizable=0;points=[];autosize=1;strokeColor=none;fillColor=none;fontSize=16;" parent="1" vertex="1">
          <mxGeometry x="69" y="500" width="60" height="30" as="geometry" />
        </mxCell>
        <mxCell id="Rt1vMekK_vcTUdiVE9J9-24" value="" style="html=1;points=[[0,0,0,0,5],[0,1,0,0,-5],[1,0,0,0,5],[1,1,0,0,-5]];perimeter=orthogonalPerimeter;outlineConnect=0;targetShapes=umlLifeline;portConstraint=eastwest;newEdgeStyle={&quot;curved&quot;:0,&quot;rounded&quot;:0};fontSize=16;" parent="1" vertex="1">
          <mxGeometry x="320" y="717.75" width="10" height="62.25" as="geometry" />
        </mxCell>
        <mxCell id="Rt1vMekK_vcTUdiVE9J9-25" value="Đưa ra thông báo thành công" style="html=1;verticalAlign=bottom;startArrow=none;startFill=0;endArrow=open;startSize=8;rounded=0;dashed=1;endFill=0;entryX=1;entryY=0;entryDx=0;entryDy=5;entryPerimeter=0;fontSize=16;" parent="1" source="Rt1vMekK_vcTUdiVE9J9-50" target="Rt1vMekK_vcTUdiVE9J9-24" edge="1">
          <mxGeometry x="0.0017" width="60" relative="1" as="geometry">
            <mxPoint x="1109" y="734.63" as="sourcePoint" />
            <mxPoint x="250" y="730.88" as="targetPoint" />
            <mxPoint as="offset" />
          </mxGeometry>
        </mxCell>
        <mxCell id="Rt1vMekK_vcTUdiVE9J9-26" value="Hiển thị danh danh sách bàn và món sau khi hủy" style="html=1;verticalAlign=bottom;startArrow=none;startFill=0;endArrow=open;startSize=8;rounded=0;dashed=1;endFill=0;exitX=0;exitY=1;exitDx=0;exitDy=-5;exitPerimeter=0;fontSize=16;" parent="1" source="Rt1vMekK_vcTUdiVE9J9-50" target="Rt1vMekK_vcTUdiVE9J9-24" edge="1">
          <mxGeometry x="-0.0598" y="-10" width="60" relative="1" as="geometry">
            <mxPoint x="754" y="808" as="sourcePoint" />
            <mxPoint x="364" y="807.9999999999998" as="targetPoint" />
            <mxPoint as="offset" />
          </mxGeometry>
        </mxCell>
        <mxCell id="Rt1vMekK_vcTUdiVE9J9-27" value="" style="html=1;points=[[0,0,0,0,5],[0,1,0,0,-5],[1,0,0,0,5],[1,1,0,0,-5]];perimeter=orthogonalPerimeter;outlineConnect=0;targetShapes=umlLifeline;portConstraint=eastwest;newEdgeStyle={&quot;curved&quot;:0,&quot;rounded&quot;:0};fontSize=16;" parent="1" vertex="1">
          <mxGeometry x="835" y="459.5" width="10" height="70.5" as="geometry" />
        </mxCell>
        <mxCell id="Rt1vMekK_vcTUdiVE9J9-28" value="" style="shape=umlLifeline;perimeter=lifelinePerimeter;whiteSpace=wrap;html=1;container=1;dropTarget=0;collapsible=0;recursiveResize=0;outlineConnect=0;portConstraint=eastwest;newEdgeStyle={&quot;curved&quot;:0,&quot;rounded&quot;:0};participant=umlBoundary;fontSize=16;" parent="1" vertex="1">
          <mxGeometry x="1049" y="90" width="50" height="900" as="geometry" />
        </mxCell>
        <mxCell id="Rt1vMekK_vcTUdiVE9J9-29" value="" style="html=1;points=[[0,0,0,0,5],[0,1,0,0,-5],[1,0,0,0,5],[1,1,0,0,-5]];perimeter=orthogonalPerimeter;outlineConnect=0;targetShapes=umlLifeline;portConstraint=eastwest;newEdgeStyle={&quot;curved&quot;:0,&quot;rounded&quot;:0};fontSize=16;" parent="Rt1vMekK_vcTUdiVE9J9-28" vertex="1">
          <mxGeometry x="20" y="376" width="10" height="84" as="geometry" />
        </mxCell>
        <mxCell id="Rt1vMekK_vcTUdiVE9J9-30" value="view món của order" style="text;html=1;strokeColor=none;fillColor=none;align=center;verticalAlign=middle;whiteSpace=wrap;rounded=0;fontSize=16;" parent="1" vertex="1">
          <mxGeometry x="1019" y="130" width="110" height="30" as="geometry" />
        </mxCell>
        <mxCell id="Rt1vMekK_vcTUdiVE9J9-31" value="" style="shape=umlLifeline;perimeter=lifelinePerimeter;whiteSpace=wrap;html=1;container=1;dropTarget=0;collapsible=0;recursiveResize=0;outlineConnect=0;portConstraint=eastwest;newEdgeStyle={&quot;curved&quot;:0,&quot;rounded&quot;:0};participant=umlControl;fontSize=16;" parent="1" vertex="1">
          <mxGeometry x="1385" y="90" width="40" height="880" as="geometry" />
        </mxCell>
        <mxCell id="Rt1vMekK_vcTUdiVE9J9-32" value="" style="html=1;points=[[0,0,0,0,5],[0,1,0,0,-5],[1,0,0,0,5],[1,1,0,0,-5]];perimeter=orthogonalPerimeter;outlineConnect=0;targetShapes=umlLifeline;portConstraint=eastwest;newEdgeStyle={&quot;curved&quot;:0,&quot;rounded&quot;:0};fontSize=16;" parent="Rt1vMekK_vcTUdiVE9J9-31" vertex="1">
          <mxGeometry x="16" y="449" width="10" height="31" as="geometry" />
        </mxCell>
        <mxCell id="Rt1vMekK_vcTUdiVE9J9-33" value="" style="html=1;points=[[0,0,0,0,5],[0,1,0,0,-5],[1,0,0,0,5],[1,1,0,0,-5]];perimeter=orthogonalPerimeter;outlineConnect=0;targetShapes=umlLifeline;portConstraint=eastwest;newEdgeStyle={&quot;curved&quot;:0,&quot;rounded&quot;:0};fontSize=16;" parent="Rt1vMekK_vcTUdiVE9J9-31" vertex="1">
          <mxGeometry x="15" y="502" width="10" height="68" as="geometry" />
        </mxCell>
        <mxCell id="Rt1vMekK_vcTUdiVE9J9-34" value="controller chọn món" style="text;html=1;align=center;verticalAlign=middle;resizable=0;points=[];autosize=1;strokeColor=none;fillColor=none;fontSize=16;" parent="1" vertex="1">
          <mxGeometry x="1326" y="130" width="160" height="30" as="geometry" />
        </mxCell>
        <mxCell id="Rt1vMekK_vcTUdiVE9J9-35" value="HIển thị danh sách món đã đặt" style="html=1;verticalAlign=bottom;endArrow=block;curved=0;rounded=0;entryX=0;entryY=0;entryDx=0;entryDy=5;entryPerimeter=0;fontSize=16;" parent="1" source="Rt1vMekK_vcTUdiVE9J9-27" target="Rt1vMekK_vcTUdiVE9J9-29" edge="1">
          <mxGeometry x="0.0047" width="80" relative="1" as="geometry">
            <mxPoint x="746" y="499" as="sourcePoint" />
            <mxPoint x="960" y="499" as="targetPoint" />
            <mxPoint as="offset" />
          </mxGeometry>
        </mxCell>
        <mxCell id="Rt1vMekK_vcTUdiVE9J9-36" value="Hủy món cần hủy" style="html=1;verticalAlign=bottom;endArrow=block;curved=0;rounded=0;fontSize=16;" parent="1" edge="1" target="Rt1vMekK_vcTUdiVE9J9-29" source="Rt1vMekK_vcTUdiVE9J9-27">
          <mxGeometry width="80" relative="1" as="geometry">
            <mxPoint x="750" y="513" as="sourcePoint" />
            <mxPoint x="960" y="513" as="targetPoint" />
            <Array as="points">
              <mxPoint x="960" y="510" />
            </Array>
          </mxGeometry>
        </mxCell>
        <mxCell id="Rt1vMekK_vcTUdiVE9J9-37" value="Tạo truy vấn xác nhận hủy món của bàn đó" style="html=1;verticalAlign=bottom;endArrow=block;curved=0;rounded=0;exitX=1;exitY=1;exitDx=0;exitDy=-5;exitPerimeter=0;entryX=0;entryY=0;entryDx=0;entryDy=5;entryPerimeter=0;fontSize=16;" parent="1" source="Rt1vMekK_vcTUdiVE9J9-29" target="Rt1vMekK_vcTUdiVE9J9-32" edge="1">
          <mxGeometry width="80" relative="1" as="geometry">
            <mxPoint x="1079" y="491" as="sourcePoint" />
            <mxPoint x="1199" y="220" as="targetPoint" />
          </mxGeometry>
        </mxCell>
        <mxCell id="Rt1vMekK_vcTUdiVE9J9-38" value="Kiểm tra món" style="html=1;verticalAlign=bottom;endArrow=block;curved=0;rounded=0;exitX=1;exitY=1;exitDx=0;exitDy=-5;exitPerimeter=0;entryX=0;entryY=0;entryDx=0;entryDy=5;entryPerimeter=0;fontSize=16;" parent="1" source="Rt1vMekK_vcTUdiVE9J9-32" target="Rt1vMekK_vcTUdiVE9J9-14" edge="1">
          <mxGeometry width="80" relative="1" as="geometry">
            <mxPoint x="1339" y="580.5" as="sourcePoint" />
            <mxPoint x="1608" y="508.5" as="targetPoint" />
          </mxGeometry>
        </mxCell>
        <mxCell id="Rt1vMekK_vcTUdiVE9J9-39" value="Đưa ra thông báo lỗi" style="html=1;verticalAlign=bottom;startArrow=none;startFill=0;endArrow=open;startSize=8;rounded=0;dashed=1;endFill=0;entryX=1;entryY=0;entryDx=0;entryDy=5;entryPerimeter=0;exitX=0;exitY=1;exitDx=0;exitDy=-5;exitPerimeter=0;fontSize=16;" parent="1" source="Rt1vMekK_vcTUdiVE9J9-33" target="Rt1vMekK_vcTUdiVE9J9-46" edge="1">
          <mxGeometry x="0.0017" width="60" relative="1" as="geometry">
            <mxPoint x="1514" y="695.7500000000002" as="sourcePoint" />
            <mxPoint x="1019" y="704.25" as="targetPoint" />
            <mxPoint as="offset" />
          </mxGeometry>
        </mxCell>
        <mxCell id="Rt1vMekK_vcTUdiVE9J9-40" value="Kiểm tra bàn và trạng thái của bàn" style="html=1;verticalAlign=bottom;endArrow=block;curved=0;rounded=0;entryX=0;entryY=0;entryDx=0;entryDy=5;entryPerimeter=0;fontSize=16;" parent="1" source="Rt1vMekK_vcTUdiVE9J9-17" target="Rt1vMekK_vcTUdiVE9J9-15" edge="1">
          <mxGeometry width="80" relative="1" as="geometry">
            <mxPoint x="1205" y="448" as="sourcePoint" />
            <mxPoint x="1425" y="448" as="targetPoint" />
          </mxGeometry>
        </mxCell>
        <mxCell id="Rt1vMekK_vcTUdiVE9J9-41" value="Trả về kết quả" style="html=1;verticalAlign=bottom;startArrow=none;startFill=0;endArrow=open;startSize=8;rounded=0;dashed=1;endFill=0;exitX=0;exitY=1;exitDx=0;exitDy=-5;exitPerimeter=0;fontSize=16;" parent="1" source="Rt1vMekK_vcTUdiVE9J9-15" target="Rt1vMekK_vcTUdiVE9J9-17" edge="1">
          <mxGeometry x="0.0017" width="60" relative="1" as="geometry">
            <mxPoint x="1355" y="331.5" as="sourcePoint" />
            <mxPoint x="910" y="330" as="targetPoint" />
            <mxPoint as="offset" />
          </mxGeometry>
        </mxCell>
        <mxCell id="Rt1vMekK_vcTUdiVE9J9-42" value="" style="html=1;points=[[0,0,0,0,5],[0,1,0,0,-5],[1,0,0,0,5],[1,1,0,0,-5]];perimeter=orthogonalPerimeter;outlineConnect=0;targetShapes=umlLifeline;portConstraint=eastwest;newEdgeStyle={&quot;curved&quot;:0,&quot;rounded&quot;:0};fontSize=16;" parent="1" vertex="1">
          <mxGeometry x="320" y="377" width="10" height="30" as="geometry" />
        </mxCell>
        <mxCell id="Rt1vMekK_vcTUdiVE9J9-43" value="Đưa ra thông báo lỗi" style="html=1;verticalAlign=bottom;startArrow=none;startFill=0;endArrow=open;startSize=8;rounded=0;dashed=1;endFill=0;exitX=0;exitY=1;exitDx=0;exitDy=-5;exitPerimeter=0;entryX=1.1;entryY=0.517;entryDx=0;entryDy=0;entryPerimeter=0;fontSize=16;" parent="1" edge="1">
          <mxGeometry x="0.0017" width="60" relative="1" as="geometry">
            <mxPoint x="835" y="397" as="sourcePoint" />
            <mxPoint x="331" y="393.51" as="targetPoint" />
            <mxPoint as="offset" />
          </mxGeometry>
        </mxCell>
        <mxCell id="Rt1vMekK_vcTUdiVE9J9-44" value="Trả về kết quả" style="html=1;verticalAlign=bottom;startArrow=none;startFill=0;endArrow=open;startSize=8;rounded=0;dashed=1;endFill=0;exitX=0;exitY=1;exitDx=0;exitDy=-5;exitPerimeter=0;entryX=1;entryY=0;entryDx=0;entryDy=5;entryPerimeter=0;fontSize=16;" parent="1" source="Rt1vMekK_vcTUdiVE9J9-14" target="Rt1vMekK_vcTUdiVE9J9-33" edge="1">
          <mxGeometry x="0.0017" width="60" relative="1" as="geometry">
            <mxPoint x="1584" y="335" as="sourcePoint" />
            <mxPoint x="865" y="335" as="targetPoint" />
            <mxPoint as="offset" />
          </mxGeometry>
        </mxCell>
        <mxCell id="Rt1vMekK_vcTUdiVE9J9-45" value="alt" style="shape=umlFrame;whiteSpace=wrap;html=1;pointerEvents=0;fontSize=16;" parent="1" vertex="1">
          <mxGeometry x="60" y="621" width="1570" height="199" as="geometry" />
        </mxCell>
        <mxCell id="Rt1vMekK_vcTUdiVE9J9-46" value="" style="html=1;points=[[0,0,0,0,5],[0,1,0,0,-5],[1,0,0,0,5],[1,1,0,0,-5]];perimeter=orthogonalPerimeter;outlineConnect=0;targetShapes=umlLifeline;portConstraint=eastwest;newEdgeStyle={&quot;curved&quot;:0,&quot;rounded&quot;:0};fontSize=16;" parent="1" vertex="1">
          <mxGeometry x="1069" y="647.5" width="10" height="22.5" as="geometry" />
        </mxCell>
        <mxCell id="Rt1vMekK_vcTUdiVE9J9-47" value="" style="endArrow=none;dashed=1;html=1;rounded=0;entryX=1;entryY=0.371;entryDx=0;entryDy=0;entryPerimeter=0;exitX=0;exitY=0.393;exitDx=0;exitDy=0;exitPerimeter=0;fontSize=16;" parent="1" source="Rt1vMekK_vcTUdiVE9J9-45" target="Rt1vMekK_vcTUdiVE9J9-45" edge="1">
          <mxGeometry width="50" height="50" relative="1" as="geometry">
            <mxPoint x="81" y="450" as="sourcePoint" />
            <mxPoint x="1551" y="447" as="targetPoint" />
            <Array as="points" />
          </mxGeometry>
        </mxCell>
        <mxCell id="Rt1vMekK_vcTUdiVE9J9-48" value="invalid" style="text;html=1;align=center;verticalAlign=middle;resizable=0;points=[];autosize=1;strokeColor=none;fillColor=none;fontSize=16;" parent="1" vertex="1">
          <mxGeometry x="59" y="662" width="70" height="30" as="geometry" />
        </mxCell>
        <mxCell id="Rt1vMekK_vcTUdiVE9J9-49" value="valid" style="text;html=1;align=center;verticalAlign=middle;resizable=0;points=[];autosize=1;strokeColor=none;fillColor=none;fontSize=16;" parent="1" vertex="1">
          <mxGeometry x="69" y="738" width="60" height="30" as="geometry" />
        </mxCell>
        <mxCell id="Rt1vMekK_vcTUdiVE9J9-50" value="" style="html=1;points=[[0,0,0,0,5],[0,1,0,0,-5],[1,0,0,0,5],[1,1,0,0,-5]];perimeter=orthogonalPerimeter;outlineConnect=0;targetShapes=umlLifeline;portConstraint=eastwest;newEdgeStyle={&quot;curved&quot;:0,&quot;rounded&quot;:0};fontSize=16;" parent="1" vertex="1">
          <mxGeometry x="1400" y="717.75" width="10" height="58.25" as="geometry" />
        </mxCell>
      </root>
    </mxGraphModel>
  </diagram>
</mxfile>
